<?xml version="1.0" encoding="UTF-8"?>
<!DOCTYPE svg PUBLIC "-//W3C//DTD SVG 1.1//EN" "http://www.w3.org/Graphics/SVG/1.1/DTD/svg11.dtd">
<svg xmlns="http://www.w3.org/2000/svg" version="1.1" width="500px" height="500px" style="shape-rendering:geometricPrecision; text-rendering:geometricPrecision; image-rendering:optimizeQuality; fill-rule:evenodd; clip-rule:evenodd" xmlns:xlink="http://www.w3.org/1999/xlink">
<g><path style="opacity:0.973" fill="#fefffe" d="M 223.5,56.5 C 280.572,52.6825 328.739,71.3491 368,112.5C 411.31,165.064 421.977,223.731 400,288.5C 379.993,338.007 344.827,371.673 294.5,389.5C 293.334,376.513 293.167,363.513 294,350.5C 327.118,335.381 350.785,311.048 365,277.5C 385.386,218.74 373.219,167.907 328.5,125C 308.297,108.568 285.297,98.0681 259.5,93.5C 258.667,117.826 258.167,142.16 258,166.5C 229.229,159.535 205.896,167.869 188,191.5C 176.796,209.702 174.463,229.035 181,249.5C 182.442,253.511 184.442,257.178 187,260.5C 187.667,277.5 187.667,294.5 187,311.5C 151.617,287.056 136.617,253.39 142,210.5C 151.776,166.724 178.443,139.39 222,128.5C 222.177,104.428 222.677,80.4276 223.5,56.5 Z"/></g>
<g><path style="opacity:0.973" fill="#fefffe" d="M 185.5,64.5 C 186.83,70.6307 187.497,77.1307 187.5,84C 187.333,90.5 187.167,97 187,103.5C 135.678,128.706 108.511,170.04 105.5,227.5C 109.425,291.877 141.759,334.711 202.5,356C 209.01,357.634 215.51,359.134 222,360.5C 222.5,336.502 222.667,312.502 222.5,288.5C 257.439,295.279 282.939,282.946 299,251.5C 306.313,231.063 304.646,211.396 294,192.5C 293.333,175.833 293.333,159.167 294,142.5C 334.674,171.848 348.341,210.848 335,259.5C 321.449,295.049 296.116,317.049 259,325.5C 258.833,378.836 258.333,432.17 257.5,485.5C 245.847,474.348 234.347,463.014 223,451.5C 222.5,433.17 222.333,414.836 222.5,396.5C 165.288,389.495 121.788,361.495 92,312.5C 60.8594,252.704 62.1928,193.704 96,135.5C 118.023,101.976 147.856,78.3095 185.5,64.5 Z"/></g>
<g><path style="opacity:0.965" fill="#fefffe" d="M 234.5,198.5 C 255.14,197.136 266.806,206.636 269.5,227C 266.528,247.83 254.528,257.163 233.5,255C 218.415,249.913 211.248,239.413 212,223.5C 214.125,210.214 221.625,201.88 234.5,198.5 Z"/></g>
</svg>
